<svg width="61" height="60" viewBox="0 0 61 60" fill="none" xmlns="http://www.w3.org/2000/svg">
<rect x="0.5" width="60" height="60" rx="15" fill="#0D519A"/>
<path d="M17.375 38.75V30C17.375 26.519 18.7578 23.1806 21.2192 20.7192C23.6806 18.2578 27.019 16.875 30.5 16.875C33.981 16.875 37.3194 18.2578 39.7808 20.7192C42.2422 23.1806 43.625 26.519 43.625 30V38.75" stroke="white" stroke-width="2" stroke-linecap="round" stroke-linejoin="round"/>
<path d="M43.625 40.2087C43.625 40.9822 43.3177 41.7241 42.7707 42.2711C42.2237 42.818 41.4819 43.1253 40.7083 43.1253H39.25C38.4765 43.1253 37.7346 42.818 37.1876 42.2711C36.6406 41.7241 36.3333 40.9822 36.3333 40.2087V35.8337C36.3333 35.0601 36.6406 34.3182 37.1876 33.7713C37.7346 33.2243 38.4765 32.917 39.25 32.917H43.625V40.2087ZM17.375 40.2087C17.375 40.9822 17.6823 41.7241 18.2293 42.2711C18.7763 42.818 19.5181 43.1253 20.2917 43.1253H21.75C22.5235 43.1253 23.2654 42.818 23.8124 42.2711C24.3594 41.7241 24.6667 40.9822 24.6667 40.2087V35.8337C24.6667 35.0601 24.3594 34.3182 23.8124 33.7713C23.2654 33.2243 22.5235 32.917 21.75 32.917H17.375V40.2087Z" stroke="white" stroke-width="2" stroke-linecap="round" stroke-linejoin="round"/>
</svg>
