<svg width="61" height="60" viewBox="0 0 61 60" fill="none" xmlns="http://www.w3.org/2000/svg">
<rect x="0.5" width="60" height="60" rx="15" fill="#0D519A"/>
<path d="M40.2667 33.8753C40.0947 34.2649 40.0434 34.6971 40.1194 35.1161C40.1954 35.5351 40.3951 35.9217 40.6929 36.2262L40.7704 36.3037C41.0106 36.5436 41.2012 36.8285 41.3312 37.1421C41.4612 37.4557 41.5281 37.7919 41.5281 38.1314C41.5281 38.4709 41.4612 38.807 41.3312 39.1206C41.2012 39.4342 41.0106 39.7192 40.7704 39.9591C40.5305 40.1993 40.2456 40.3898 39.932 40.5198C39.6184 40.6498 39.2822 40.7167 38.9427 40.7167C38.6032 40.7167 38.2671 40.6498 37.9534 40.5198C37.6398 40.3898 37.3549 40.1993 37.115 39.9591L37.0375 39.8816C36.7331 39.5838 36.3464 39.384 35.9274 39.3081C35.5084 39.2321 35.0763 39.2834 34.6867 39.4553C34.3046 39.6191 33.9788 39.8909 33.7493 40.2375C33.5198 40.584 33.3967 40.9901 33.395 41.4057V41.6253C33.395 42.3105 33.1228 42.9676 32.6384 43.452C32.1539 43.9365 31.4968 44.2087 30.8117 44.2087C30.1265 44.2087 29.4694 43.9365 28.985 43.452C28.5005 42.9676 28.2283 42.3105 28.2283 41.6253V41.5091C28.2183 41.0815 28.0799 40.6669 27.8312 40.3191C27.5824 39.9712 27.2347 39.7063 26.8333 39.5587C26.4437 39.3867 26.0116 39.3354 25.5926 39.4114C25.1736 39.4874 24.7869 39.6871 24.4825 39.9849L24.405 40.0624C24.1651 40.3026 23.8802 40.4931 23.5666 40.6231C23.2529 40.7532 22.9168 40.8201 22.5773 40.8201C22.2378 40.8201 21.9016 40.7532 21.588 40.6231C21.2744 40.4931 20.9895 40.3026 20.7496 40.0624C20.5094 39.8225 20.3189 39.5376 20.1888 39.224C20.0588 38.9104 19.9919 38.5742 19.9919 38.2347C19.9919 37.8952 20.0588 37.5591 20.1888 37.2454C20.3189 36.9318 20.5094 36.6469 20.7496 36.407L20.8271 36.3295C21.1249 36.0251 21.3246 35.6384 21.4006 35.2194C21.4766 34.8004 21.4253 34.3682 21.2533 33.9787C21.0896 33.5966 20.8177 33.2708 20.4712 33.0413C20.1246 32.8118 19.7186 32.6887 19.3029 32.687H19.0833C18.3982 32.687 17.7411 32.4148 17.2566 31.9304C16.7722 31.4459 16.5 30.7888 16.5 30.1037C16.5 29.4185 16.7722 28.7614 17.2566 28.277C17.7411 27.7925 18.3982 27.5203 19.0833 27.5203H19.1996C19.6271 27.5103 20.0418 27.3719 20.3896 27.1232C20.7374 26.8744 21.0024 26.5267 21.15 26.1253C21.3219 25.7357 21.3732 25.3036 21.2973 24.8846C21.2213 24.4656 21.0215 24.0789 20.7238 23.7745L20.6463 23.697C20.4061 23.4571 20.2155 23.1722 20.0855 22.8585C19.9555 22.5449 19.8886 22.2088 19.8886 21.8693C19.8886 21.5298 19.9555 21.1936 20.0855 20.88C20.2155 20.5664 20.4061 20.2815 20.6463 20.0416C20.8862 19.8014 21.1711 19.6108 21.4847 19.4808C21.7983 19.3508 22.1345 19.2839 22.474 19.2839C22.8134 19.2839 23.1496 19.3508 23.4632 19.4808C23.7768 19.6108 24.0617 19.8014 24.3017 20.0416L24.3792 20.1191C24.6836 20.4169 25.0702 20.6166 25.4892 20.6926C25.9083 20.7686 26.3404 20.7173 26.73 20.5453H26.8333C27.2154 20.3816 27.5412 20.1097 27.7707 19.7632C28.0002 19.4166 28.1233 19.0106 28.125 18.5949V18.3753C28.125 17.6902 28.3972 17.0331 28.8816 16.5486C29.3661 16.0642 30.0232 15.792 30.7083 15.792C31.3935 15.792 32.0506 16.0642 32.535 16.5486C33.0195 17.0331 33.2917 17.6902 33.2917 18.3753V18.4916C33.2933 18.9072 33.4165 19.3133 33.646 19.6598C33.8755 20.0064 34.2013 20.2783 34.5833 20.442C34.9729 20.6139 35.4051 20.6652 35.8241 20.5892C36.2431 20.5133 36.6297 20.3135 36.9342 20.0157L37.0117 19.9382C37.2516 19.6981 37.5365 19.5075 37.8501 19.3775C38.1637 19.2475 38.4999 19.1806 38.8394 19.1806C39.1789 19.1806 39.515 19.2475 39.8286 19.3775C40.1423 19.5075 40.4272 19.6981 40.6671 19.9382C40.9073 20.1782 41.0978 20.4631 41.2278 20.7767C41.3578 21.0903 41.4247 21.4265 41.4247 21.766C41.4247 22.1054 41.3578 22.4416 41.2278 22.7552C41.0978 23.0688 40.9073 23.3537 40.6671 23.5937L40.5896 23.6712C40.2918 23.9756 40.0921 24.3622 40.0161 24.7812C39.9401 25.2002 39.9914 25.6324 40.1633 26.022V26.1253C40.3271 26.5074 40.5989 26.8332 40.9455 27.0627C41.292 27.2922 41.6981 27.4153 42.1138 27.417H42.3333C43.0185 27.417 43.6756 27.6892 44.16 28.1736C44.6445 28.6581 44.9167 29.3152 44.9167 30.0003C44.9167 30.6855 44.6445 31.3425 44.16 31.827C43.6756 32.3115 43.0185 32.5837 42.3333 32.5837H42.2171C41.8014 32.5853 41.3954 32.7085 41.0488 32.938C40.7023 33.1675 40.4304 33.4933 40.2667 33.8753Z" stroke="white" stroke-width="2" stroke-linecap="round" stroke-linejoin="round"/>
<path d="M30.375 33.6042C32.5151 33.6042 34.25 31.9019 34.25 29.8021C34.25 27.7023 32.5151 26 30.375 26C28.2349 26 26.5 27.7023 26.5 29.8021C26.5 31.9019 28.2349 33.6042 30.375 33.6042Z" stroke="white" stroke-width="2" stroke-linecap="round" stroke-linejoin="round"/>
</svg>
