<svg width="72" height="72" viewBox="0 0 72 72" fill="none" xmlns="http://www.w3.org/2000/svg">
<g filter="url(#filter0_dd_1414_1308)">
<rect x="6" y="6" width="60" height="60" rx="20" fill="#0D519A"/>
<path d="M36 27.3333C37.2377 27.3333 38.4247 27.8249 39.2998 28.7001C40.175 29.5753 40.6667 30.7622 40.6667 31.9999C40.6667 33.2376 40.175 34.4246 39.2998 35.2998C38.4247 36.1749 37.2377 36.6666 36 36.6666C34.7623 36.6666 33.5753 36.1749 32.7002 35.2998C31.825 34.4246 31.3333 33.2376 31.3333 31.9999C31.3333 30.7622 31.825 29.5753 32.7002 28.7001C33.5753 27.8249 34.7623 27.3333 36 27.3333ZM26.6667 30.6666C27.4133 30.6666 28.1067 30.8666 28.7067 31.2266C28.5067 33.1333 29.0667 35.0266 30.2133 36.5066C29.5467 37.7866 28.2133 38.6666 26.6667 38.6666C25.6058 38.6666 24.5884 38.2452 23.8382 37.495C23.0881 36.7449 22.6667 35.7275 22.6667 34.6666C22.6667 33.6057 23.0881 32.5883 23.8382 31.8382C24.5884 31.088 25.6058 30.6666 26.6667 30.6666ZM45.3333 30.6666C46.3942 30.6666 47.4116 31.088 48.1618 31.8382C48.9119 32.5883 49.3333 33.6057 49.3333 34.6666C49.3333 35.7275 48.9119 36.7449 48.1618 37.495C47.4116 38.2452 46.3942 38.6666 45.3333 38.6666C43.7867 38.6666 42.4533 37.7866 41.7867 36.5066C42.9487 35.0056 43.4882 33.1148 43.2933 31.2266C43.8933 30.8666 44.5867 30.6666 45.3333 30.6666ZM27.3333 44.3333C27.3333 41.5733 31.2133 39.3333 36 39.3333C40.7867 39.3333 44.6667 41.5733 44.6667 44.3333V46.6666H27.3333V44.3333ZM20 46.6666V44.6666C20 42.8133 22.52 41.2533 25.9333 40.7999C25.1467 41.7066 24.6667 42.9599 24.6667 44.3333V46.6666H20ZM52 46.6666H47.3333V44.3333C47.3333 42.9599 46.8533 41.7066 46.0667 40.7999C49.48 41.2533 52 42.8133 52 44.6666V46.6666Z" fill="#FFF0EB"/>
</g>
<defs>
<filter id="filter0_dd_1414_1308" x="0" y="0" width="72" height="72" filterUnits="userSpaceOnUse" color-interpolation-filters="sRGB">
<feFlood flood-opacity="0" result="BackgroundImageFix"/>
<feColorMatrix in="SourceAlpha" type="matrix" values="0 0 0 0 0 0 0 0 0 0 0 0 0 0 0 0 0 0 127 0" result="hardAlpha"/>
<feOffset dy="2"/>
<feGaussianBlur stdDeviation="2"/>
<feColorMatrix type="matrix" values="0 0 0 0 0 0 0 0 0 0 0 0 0 0 0 0 0 0 0.08 0"/>
<feBlend mode="normal" in2="BackgroundImageFix" result="effect1_dropShadow_1414_1308"/>
<feColorMatrix in="SourceAlpha" type="matrix" values="0 0 0 0 0 0 0 0 0 0 0 0 0 0 0 0 0 0 127 0" result="hardAlpha"/>
<feOffset/>
<feGaussianBlur stdDeviation="3"/>
<feColorMatrix type="matrix" values="0 0 0 0 0 0 0 0 0 0 0 0 0 0 0 0 0 0 0.02 0"/>
<feBlend mode="normal" in2="effect1_dropShadow_1414_1308" result="effect2_dropShadow_1414_1308"/>
<feBlend mode="normal" in="SourceGraphic" in2="effect2_dropShadow_1414_1308" result="shape"/>
</filter>
</defs>
</svg>
