<svg width="72" height="72" viewBox="0 0 72 72" fill="none" xmlns="http://www.w3.org/2000/svg">
<g filter="url(#filter0_dd_1414_1245)">
<rect x="6" y="6" width="60" height="60" rx="20" fill="#0D519A"/>
<path d="M36.4444 23C29.572 23 24 27.7267 24 33.5587C24 35.5493 24.6487 37.412 25.778 39" stroke="#FFF0EB" stroke-width="2" stroke-linecap="round"/>
<path d="M41.8888 34.9999V37.6666M46.5554 34.9999V37.6666M41.8888 24.3333V26.9999M46.5554 24.3333V26.9999M39.5554 28.9999H36.4443M39.5554 32.9999H36.4443M51.9999 28.9999H48.8888M51.9999 32.9999H48.8888M45.7777 26.9999H42.6666C41.1997 26.9999 40.467 26.9999 40.0112 27.3906C39.5554 27.7813 39.5554 28.4093 39.5554 29.6666V32.3333C39.5554 33.5906 39.5554 34.2186 40.0112 34.6093C40.467 34.9999 41.1997 34.9999 42.6666 34.9999H45.7777C47.2446 34.9999 47.9772 34.9999 48.433 34.6093C48.8888 34.2186 48.8888 33.5906 48.8888 32.3333V29.6666C48.8888 28.4093 48.8888 27.7813 48.433 27.3906C47.9772 26.9999 47.2446 26.9999 45.7777 26.9999Z" stroke="#FFF0EB" stroke-width="2" stroke-linecap="round" stroke-linejoin="round"/>
<path d="M41.1108 45.6667L40.9086 46.5294C40.6908 47.4721 40.5804 47.9427 40.333 48.3161C39.9519 48.8915 39.3348 49.3249 38.6017 49.5321C38.1273 49.6667 37.5641 49.6667 36.4441 49.6667C35.3241 49.6667 34.761 49.6667 34.2866 49.5334C33.5532 49.3259 32.9361 48.892 32.5553 48.3161C32.3079 47.9427 32.1975 47.4721 31.9797 46.5294L31.7775 45.6667M29.2621 43.1307C29.119 42.7627 29.0475 42.5774 29.0553 42.4281C29.0641 42.2737 29.1249 42.1248 29.2303 41.9993C29.3358 41.8739 29.4814 41.7774 29.6495 41.7214C29.8113 41.6667 30.0384 41.6667 30.4895 41.6667H42.3988C42.8515 41.6667 43.077 41.6667 43.2388 41.7201C43.4072 41.7762 43.5529 41.8729 43.6584 41.9986C43.7639 42.1242 43.8245 42.2734 43.833 42.4281C43.8408 42.5774 43.7693 42.7614 43.6261 43.1307C43.3617 43.8121 43.2295 44.1534 43.0257 44.4294C42.5995 45.0062 41.9314 45.4209 41.159 45.5881C40.7888 45.6667 40.3719 45.6667 39.5366 45.6667H33.3517C32.5164 45.6667 32.0979 45.6667 31.7293 45.5867C30.9572 45.4199 30.2891 45.0057 29.8626 44.4294C29.6588 44.1534 29.5266 43.8121 29.2621 43.1307Z" stroke="#FFF0EB" stroke-width="2"/>
</g>
<defs>
<filter id="filter0_dd_1414_1245" x="0" y="0" width="72" height="72" filterUnits="userSpaceOnUse" color-interpolation-filters="sRGB">
<feFlood flood-opacity="0" result="BackgroundImageFix"/>
<feColorMatrix in="SourceAlpha" type="matrix" values="0 0 0 0 0 0 0 0 0 0 0 0 0 0 0 0 0 0 127 0" result="hardAlpha"/>
<feOffset dy="2"/>
<feGaussianBlur stdDeviation="2"/>
<feColorMatrix type="matrix" values="0 0 0 0 0 0 0 0 0 0 0 0 0 0 0 0 0 0 0.08 0"/>
<feBlend mode="normal" in2="BackgroundImageFix" result="effect1_dropShadow_1414_1245"/>
<feColorMatrix in="SourceAlpha" type="matrix" values="0 0 0 0 0 0 0 0 0 0 0 0 0 0 0 0 0 0 127 0" result="hardAlpha"/>
<feOffset/>
<feGaussianBlur stdDeviation="3"/>
<feColorMatrix type="matrix" values="0 0 0 0 0 0 0 0 0 0 0 0 0 0 0 0 0 0 0.02 0"/>
<feBlend mode="normal" in2="effect1_dropShadow_1414_1245" result="effect2_dropShadow_1414_1245"/>
<feBlend mode="normal" in="SourceGraphic" in2="effect2_dropShadow_1414_1245" result="shape"/>
</filter>
</defs>
</svg>
