<svg width="73" height="72" viewBox="0 0 73 72" fill="none" xmlns="http://www.w3.org/2000/svg">
<g filter="url(#filter0_dd_2007_1849)">
<rect x="6.5" y="6" width="60" height="60" rx="20" fill="#0D519A"/>
<path d="M35.1667 22.667C29.276 22.667 24.5 27.3937 24.5 33.2257C24.5 35.2163 25.056 37.079 26.024 38.667" stroke="#FFF0EB" stroke-width="2" stroke-linecap="round"/>
<path d="M39.8334 34.6667V37.3333M43.8334 34.6667V37.3333M39.8334 24V26.6667M43.8334 24V26.6667M37.8334 28.6667H35.1667M37.8334 32.6667H35.1667M48.5 28.6667H45.8334M48.5 32.6667H45.8334M43.1667 26.6667H40.5C39.2427 26.6667 38.6147 26.6667 38.224 27.0573C37.8334 27.448 37.8334 28.076 37.8334 29.3333V32C37.8334 33.2573 37.8334 33.8853 38.224 34.276C38.6147 34.6667 39.2427 34.6667 40.5 34.6667H43.1667C44.424 34.6667 45.052 34.6667 45.4427 34.276C45.8334 33.8853 45.8334 33.2573 45.8334 32V29.3333C45.8334 28.076 45.8334 27.448 45.4427 27.0573C45.052 26.6667 44.424 26.6667 43.1667 26.6667Z" stroke="#FFF0EB" stroke-width="2" stroke-linecap="round" stroke-linejoin="round"/>
<path d="M39.1666 45.334L38.9933 46.1967C38.8066 47.1393 38.712 47.61 38.5 47.9833C38.1733 48.5587 37.6444 48.9921 37.016 49.1993C36.6093 49.334 36.1266 49.334 35.1666 49.334C34.2066 49.334 33.724 49.334 33.3173 49.2007C32.6887 48.9931 32.1597 48.5592 31.8333 47.9833C31.6213 47.61 31.5266 47.1393 31.34 46.1967L31.1666 45.334M29.0106 42.798C28.888 42.43 28.8266 42.2446 28.8333 42.0953C28.8409 41.9409 28.893 41.792 28.9834 41.6666C29.0738 41.5412 29.1986 41.4446 29.3426 41.3887C29.4813 41.334 29.676 41.334 30.0626 41.334H40.2706C40.6586 41.334 40.852 41.334 40.9906 41.3873C41.1349 41.4434 41.2599 41.5401 41.3503 41.6658C41.4407 41.7915 41.4927 41.9407 41.5 42.0953C41.5066 42.2446 41.4453 42.4287 41.3226 42.798C41.096 43.4793 40.9826 43.8207 40.808 44.0967C40.4426 44.6735 39.87 45.0882 39.208 45.2553C38.8906 45.334 38.5333 45.334 37.8173 45.334H32.516C31.8 45.334 31.4413 45.334 31.1253 45.254C30.4635 45.0872 29.8909 44.673 29.5253 44.0967C29.3506 43.8207 29.2373 43.4793 29.0106 42.798Z" stroke="#FFF0EB" stroke-width="2"/>
</g>
<defs>
<filter id="filter0_dd_2007_1849" x="0.5" y="0" width="72" height="72" filterUnits="userSpaceOnUse" color-interpolation-filters="sRGB">
<feFlood flood-opacity="0" result="BackgroundImageFix"/>
<feColorMatrix in="SourceAlpha" type="matrix" values="0 0 0 0 0 0 0 0 0 0 0 0 0 0 0 0 0 0 127 0" result="hardAlpha"/>
<feOffset dy="2"/>
<feGaussianBlur stdDeviation="2"/>
<feColorMatrix type="matrix" values="0 0 0 0 0 0 0 0 0 0 0 0 0 0 0 0 0 0 0.08 0"/>
<feBlend mode="normal" in2="BackgroundImageFix" result="effect1_dropShadow_2007_1849"/>
<feColorMatrix in="SourceAlpha" type="matrix" values="0 0 0 0 0 0 0 0 0 0 0 0 0 0 0 0 0 0 127 0" result="hardAlpha"/>
<feOffset/>
<feGaussianBlur stdDeviation="3"/>
<feColorMatrix type="matrix" values="0 0 0 0 0 0 0 0 0 0 0 0 0 0 0 0 0 0 0.02 0"/>
<feBlend mode="normal" in2="effect1_dropShadow_2007_1849" result="effect2_dropShadow_2007_1849"/>
<feBlend mode="normal" in="SourceGraphic" in2="effect2_dropShadow_2007_1849" result="shape"/>
</filter>
</defs>
</svg>
