<svg width="72" height="72" viewBox="0 0 72 72" fill="none" xmlns="http://www.w3.org/2000/svg">
<g filter="url(#filter0_dd_1344_588)">
<rect x="6" y="6" width="60" height="60" rx="20" fill="#0D519A"/>
<path d="M26.6667 43.6653V38.644L32.08 42.1813C33.2459 42.9421 34.6079 43.3471 36 43.3471C37.3921 43.3471 38.7541 42.9421 39.92 42.1813L45.3333 38.644V43.6653C45.3333 43.8817 45.2632 44.0922 45.1333 44.2653L45.132 44.268L45.1307 44.2693L45.1267 44.2747L45.1147 44.288L45.0987 44.3093L45.0813 44.332L44.9667 44.4667C44.8326 44.6197 44.6915 44.7665 44.544 44.9067C44.1747 45.2627 43.624 45.7253 42.8773 46.184C41.3813 47.104 39.1173 47.9987 36 47.9987C32.8827 47.9987 30.6187 47.1053 29.1213 46.184C28.522 45.8191 27.9633 45.3914 27.4547 44.908C27.2521 44.714 27.0619 44.5073 26.8853 44.2893L26.8733 44.276L26.8693 44.2693V44.2667C26.7394 44.0935 26.6684 43.8818 26.6667 43.6653ZM49.5467 33.504L38.8267 40.508C37.9859 41.0565 37.0038 41.3485 36 41.3485C34.9962 41.3485 34.0141 41.0565 33.1733 40.508L24 34.5133V41.6653C24 41.9305 23.8946 42.1849 23.7071 42.3724C23.5196 42.56 23.2652 42.6653 23 42.6653C22.7348 42.6653 22.4804 42.56 22.2929 42.3724C22.1054 42.1849 22 41.9305 22 41.6653V33.332C22 33.2138 22.0191 33.1027 22.0573 32.9987C21.9822 32.7861 21.9812 32.5545 22.0542 32.3413C22.1273 32.128 22.2703 31.9458 22.46 31.824L33.212 24.9307C34.0444 24.3981 35.0119 24.1151 36 24.1151C36.9881 24.1151 37.9556 24.3981 38.788 24.9307L49.54 31.824C49.6804 31.9142 49.7961 32.038 49.8764 32.1843C49.9566 32.3306 49.9991 32.4946 49.9997 32.6615C50.0004 32.8284 49.9593 32.9928 49.8801 33.1397C49.801 33.2866 49.6864 33.4114 49.5467 33.5027" fill="#FFF0EB"/>
</g>
<defs>
<filter id="filter0_dd_1344_588" x="0" y="0" width="72" height="72" filterUnits="userSpaceOnUse" color-interpolation-filters="sRGB">
<feFlood flood-opacity="0" result="BackgroundImageFix"/>
<feColorMatrix in="SourceAlpha" type="matrix" values="0 0 0 0 0 0 0 0 0 0 0 0 0 0 0 0 0 0 127 0" result="hardAlpha"/>
<feOffset dy="2"/>
<feGaussianBlur stdDeviation="2"/>
<feColorMatrix type="matrix" values="0 0 0 0 0 0 0 0 0 0 0 0 0 0 0 0 0 0 0.08 0"/>
<feBlend mode="normal" in2="BackgroundImageFix" result="effect1_dropShadow_1344_588"/>
<feColorMatrix in="SourceAlpha" type="matrix" values="0 0 0 0 0 0 0 0 0 0 0 0 0 0 0 0 0 0 127 0" result="hardAlpha"/>
<feOffset/>
<feGaussianBlur stdDeviation="3"/>
<feColorMatrix type="matrix" values="0 0 0 0 0 0 0 0 0 0 0 0 0 0 0 0 0 0 0.02 0"/>
<feBlend mode="normal" in2="effect1_dropShadow_1344_588" result="effect2_dropShadow_1344_588"/>
<feBlend mode="normal" in="SourceGraphic" in2="effect2_dropShadow_1344_588" result="shape"/>
</filter>
</defs>
</svg>
