<svg width="72" height="72" viewBox="0 0 72 72" fill="none" xmlns="http://www.w3.org/2000/svg">
<g filter="url(#filter0_dd_1344_1763)">
<rect x="6" y="6" width="60" height="60" rx="20" fill="#0D519A"/>
<path d="M36.8022 22.265C37.7214 23.5898 38.559 24.9694 39.3103 26.3962C39.4209 26.3805 39.5324 26.3726 39.6441 26.3725C40.0948 26.3726 40.5364 26.4996 40.9183 26.739C41.3002 26.9784 41.6069 27.3205 41.8034 27.7261C42.8718 27.6305 43.9434 27.574 45.0159 27.5565C45.6337 27.5471 46.2543 27.5505 46.8777 27.5667C44.5158 24.5219 40.9039 22.4995 36.8022 22.265ZM34.8572 22.2906C34.8102 22.2944 34.7628 22.297 34.7158 22.3011C33.6358 24.511 32.791 26.6947 32.1871 28.8499C32.4461 29.0102 32.6722 29.2182 32.8534 29.463C34.3091 29.0228 35.7862 28.6565 37.279 28.3654C37.3586 27.9028 37.5722 27.4737 37.8934 27.1312C37.0303 25.4947 36.0214 23.8806 34.8572 22.2906ZM32.7964 22.6176C29.4599 23.4123 26.5412 25.4257 24.6134 28.2624C26.0903 28.6013 27.5526 29.0015 28.9964 29.4618C29.1909 29.1996 29.4368 28.9799 29.7191 28.816C30.0014 28.6522 30.3142 28.5476 30.6383 28.5088C31.1743 26.5558 31.8937 24.5904 32.7964 22.6176ZM45.9558 29.1514C44.6175 29.1427 43.2934 29.1974 41.982 29.3114C41.8654 29.8174 41.5878 30.2719 41.191 30.6067C41.6322 31.7934 42.0079 33.0034 42.3164 34.2314C42.6299 34.2647 42.9338 34.3594 43.2107 34.5102C43.4876 34.6609 43.7321 34.8648 43.9302 35.1101C45.7853 34.5547 47.6745 34.1202 49.5858 33.8093C49.3283 32.1926 48.7823 30.6354 47.974 29.2118C47.2977 29.1762 46.625 29.1563 45.9558 29.1514ZM23.7545 29.7152C23.0619 31.0635 22.5985 32.5176 22.3833 34.0179C24.3967 32.8621 26.4444 31.8534 28.5273 30.9978L28.5266 30.9882C26.9804 30.4947 25.3874 30.0746 23.7545 29.7152ZM37.5446 29.9341C36.1206 30.2118 34.7116 30.561 33.3228 30.9805C33.3217 31.0077 33.3202 31.0349 33.3183 31.0621C35.7986 32.113 38.181 33.3813 40.4377 34.8522C40.5425 34.7559 40.6557 34.6692 40.7759 34.593C40.483 33.4336 40.1267 32.2912 39.7084 31.1709L39.6441 31.1722C39.2155 31.172 38.7947 31.057 38.4256 30.8393C38.0564 30.6215 37.7523 30.3088 37.5449 29.9338M29.1225 32.4749C26.789 33.4368 24.4962 34.6006 22.2415 35.9555L22.2402 36C22.2402 39.6371 23.646 42.937 25.9414 45.3942C27.2504 44.2231 28.6165 43.1172 30.0345 42.0806C29.4329 39.105 29.3455 36.063 29.7398 32.9782C29.5074 32.8463 29.2986 32.6765 29.1222 32.4758M32.6809 32.5267C32.3122 32.9227 31.8205 33.1825 31.2857 33.264C30.949 35.9184 30.997 38.5267 31.4482 41.0861C34.0588 39.3149 36.7961 37.8256 39.6633 36.6336V36.6186C39.6635 36.5018 39.6723 36.3852 39.6895 36.2698C37.4714 34.8125 35.1256 33.5597 32.6809 32.5267ZM49.7452 35.4048C47.9608 35.7 46.1967 36.107 44.4633 36.6234C44.4626 36.9713 44.3863 37.3149 44.2396 37.6304C45.7631 38.8753 47.2029 40.2192 48.5497 41.6534C49.3499 39.8763 49.7626 37.949 49.7602 36C49.7602 35.8003 49.7538 35.6022 49.7452 35.4048ZM40.2034 38.1338C37.2671 39.3597 34.4719 40.9123 31.807 42.7757C32.3894 45.1238 33.3164 47.4294 34.6002 49.6899C35.0606 49.7366 35.5273 49.76 36.0002 49.76C37.8665 49.76 39.6441 49.3888 41.2652 48.7187C41.807 45.3862 41.9135 42.136 41.5634 38.9651C41.0286 38.851 40.5488 38.5577 40.2034 38.1338ZM43.1414 38.793C43.471 41.753 43.4214 44.7738 43.0102 47.8464C44.9541 46.6959 46.5857 45.0855 47.7615 43.1568C46.3298 41.5918 44.7857 40.1335 43.1414 38.7936M30.4342 43.7712C29.287 44.6356 28.1757 45.5468 27.1033 46.5024C28.694 47.8533 30.5724 48.8229 32.5951 49.337C31.661 47.5142 30.9433 45.657 30.4342 43.7712Z" fill="#FFF0EB"/>
</g>
<defs>
<filter id="filter0_dd_1344_1763" x="0" y="0" width="72" height="72" filterUnits="userSpaceOnUse" color-interpolation-filters="sRGB">
<feFlood flood-opacity="0" result="BackgroundImageFix"/>
<feColorMatrix in="SourceAlpha" type="matrix" values="0 0 0 0 0 0 0 0 0 0 0 0 0 0 0 0 0 0 127 0" result="hardAlpha"/>
<feOffset dy="2"/>
<feGaussianBlur stdDeviation="2"/>
<feColorMatrix type="matrix" values="0 0 0 0 0 0 0 0 0 0 0 0 0 0 0 0 0 0 0.08 0"/>
<feBlend mode="normal" in2="BackgroundImageFix" result="effect1_dropShadow_1344_1763"/>
<feColorMatrix in="SourceAlpha" type="matrix" values="0 0 0 0 0 0 0 0 0 0 0 0 0 0 0 0 0 0 127 0" result="hardAlpha"/>
<feOffset/>
<feGaussianBlur stdDeviation="3"/>
<feColorMatrix type="matrix" values="0 0 0 0 0 0 0 0 0 0 0 0 0 0 0 0 0 0 0.02 0"/>
<feBlend mode="normal" in2="effect1_dropShadow_1344_1763" result="effect2_dropShadow_1344_1763"/>
<feBlend mode="normal" in="SourceGraphic" in2="effect2_dropShadow_1344_1763" result="shape"/>
</filter>
</defs>
</svg>
