<svg width="72" height="72" viewBox="0 0 72 72" fill="none" xmlns="http://www.w3.org/2000/svg">
<g filter="url(#filter0_dd_1344_1493)">
<rect x="6" y="6" width="60" height="60" rx="20" fill="#0D519A"/>
<path d="M36.17 24.26L31.33 28.18C30.525 28.83 30.37 30 30.98 30.835C31.625 31.725 32.88 31.9 33.745 31.225L38.71 27.365C39.06 27.095 39.56 27.155 39.835 27.505C40.11 27.855 40.045 28.355 39.695 28.63L38.65 29.44L45.6 35.84V26.4H45.565L45.37 26.275L41.74 23.95C40.975 23.46 40.08 23.2 39.17 23.2C38.08 23.2 37.02 23.575 36.17 24.26ZM37.31 30.48L34.725 32.49C33.15 33.72 30.865 33.4 29.685 31.78C28.575 30.255 28.855 28.125 30.32 26.94L34.48 23.575C33.9 23.33 33.275 23.205 32.64 23.205C31.7 23.2 30.785 23.48 30 24L26.4 26.4V37.6H27.81L32.38 41.77C33.36 42.665 34.875 42.595 35.77 41.615C36.045 41.31 36.23 40.955 36.325 40.585L37.175 41.365C38.15 42.26 39.67 42.195 40.565 41.22C40.79 40.975 40.955 40.69 41.06 40.395C42.03 41.045 43.35 40.91 44.165 40.02C45.06 39.045 44.995 37.525 44.02 36.63L37.31 30.48ZM20.8 26.4C20.36 26.4 20 26.76 20 27.2V37.6C20 38.485 20.715 39.2 21.6 39.2H23.2C24.085 39.2 24.8 38.485 24.8 37.6V26.4H20.8ZM22.4 36C22.6122 36 22.8157 36.0843 22.9657 36.2343C23.1157 36.3844 23.2 36.5878 23.2 36.8C23.2 37.0122 23.1157 37.2157 22.9657 37.3657C22.8157 37.5157 22.6122 37.6 22.4 37.6C22.1878 37.6 21.9843 37.5157 21.8343 37.3657C21.6843 37.2157 21.6 37.0122 21.6 36.8C21.6 36.5878 21.6843 36.3844 21.8343 36.2343C21.9843 36.0843 22.1878 36 22.4 36ZM47.2 26.4V37.6C47.2 38.485 47.915 39.2 48.8 39.2H50.4C51.285 39.2 52 38.485 52 37.6V27.2C52 26.76 51.64 26.4 51.2 26.4H47.2ZM48.8 36.8C48.8 36.5878 48.8843 36.3844 49.0343 36.2343C49.1843 36.0843 49.3878 36 49.6 36C49.8122 36 50.0157 36.0843 50.1657 36.2343C50.3157 36.3844 50.4 36.5878 50.4 36.8C50.4 37.0122 50.3157 37.2157 50.1657 37.3657C50.0157 37.5157 49.8122 37.6 49.6 37.6C49.3878 37.6 49.1843 37.5157 49.0343 37.3657C48.8843 37.2157 48.8 37.0122 48.8 36.8Z" fill="#FFF0EB"/>
</g>
<defs>
<filter id="filter0_dd_1344_1493" x="0" y="0" width="72" height="72" filterUnits="userSpaceOnUse" color-interpolation-filters="sRGB">
<feFlood flood-opacity="0" result="BackgroundImageFix"/>
<feColorMatrix in="SourceAlpha" type="matrix" values="0 0 0 0 0 0 0 0 0 0 0 0 0 0 0 0 0 0 127 0" result="hardAlpha"/>
<feOffset dy="2"/>
<feGaussianBlur stdDeviation="2"/>
<feColorMatrix type="matrix" values="0 0 0 0 0 0 0 0 0 0 0 0 0 0 0 0 0 0 0.08 0"/>
<feBlend mode="normal" in2="BackgroundImageFix" result="effect1_dropShadow_1344_1493"/>
<feColorMatrix in="SourceAlpha" type="matrix" values="0 0 0 0 0 0 0 0 0 0 0 0 0 0 0 0 0 0 127 0" result="hardAlpha"/>
<feOffset/>
<feGaussianBlur stdDeviation="3"/>
<feColorMatrix type="matrix" values="0 0 0 0 0 0 0 0 0 0 0 0 0 0 0 0 0 0 0.02 0"/>
<feBlend mode="normal" in2="effect1_dropShadow_1344_1493" result="effect2_dropShadow_1344_1493"/>
<feBlend mode="normal" in="SourceGraphic" in2="effect2_dropShadow_1344_1493" result="shape"/>
</filter>
</defs>
</svg>
